<svg width="33" height="30" viewBox="0 0 33 30" fill="none" xmlns="http://www.w3.org/2000/svg">
<path d="M16.1637 0.811144C16.3013 0.532429 16.6987 0.532427 16.8363 0.811145L20.9912 9.22987C21.1915 9.63569 21.5786 9.91698 22.0265 9.98205L31.3171 11.3321C31.6247 11.3768 31.7475 11.7547 31.5249 11.9717L24.8021 18.5248C24.4781 18.8406 24.3302 19.2958 24.4067 19.7418L25.9937 28.9949C26.0463 29.3012 25.7247 29.5348 25.4496 29.3902L17.1398 25.0215C16.7393 24.8109 16.2607 24.8109 15.8602 25.0215L7.55037 29.3902C7.27527 29.5348 6.95373 29.3012 7.00627 28.9949L8.5933 19.7418C8.6698 19.2958 8.52192 18.8406 8.19785 18.5248L1.4751 11.9717C1.25253 11.7547 1.37534 11.3768 1.68293 11.3321L10.9735 9.98205C11.4214 9.91698 11.8085 9.63569 12.0088 9.22987L16.1637 0.811144Z" stroke="#C0F7B7"/>
</svg>
